<svg width="36" height="50" viewBox="0 0 36 50" fill="none" xmlns="http://www.w3.org/2000/svg" xmlns:xlink="http://www.w3.org/1999/xlink">
<path d="M33.72,6.458C35.078,5.508 35.408,3.637 34.458,2.28C33.508,0.922 31.637,0.592 30.28,1.542L33.72,6.458ZM2,25L0.28,22.542C-0.522,23.104 -1,24.021 -1,25C-1,25.979 -0.522,26.896 0.28,27.458L2,25ZM30.28,48.458C31.637,49.408 33.508,49.078 34.458,47.72C35.408,46.363 35.078,44.492 33.72,43.542L30.28,48.458ZM30.28,1.542L0.28,22.542L3.72,27.458L33.72,6.458L30.28,1.542ZM0.28,27.458L30.28,48.458L33.72,43.542L3.72,22.542L0.28,27.458Z" fill="#000000"/>
<path d="M33.72,6.458C35.078,5.508 35.408,3.637 34.458,2.28C33.508,0.922 31.637,0.592 30.28,1.542L33.72,6.458ZM2,25L0.28,22.542C-0.522,23.104 -1,24.021 -1,25C-1,25.979 -0.522,26.896 0.28,27.458L2,25ZM30.28,48.458C31.637,49.408 33.508,49.078 34.458,47.72C35.408,46.363 35.078,44.492 33.72,43.542L30.28,48.458ZM30.28,1.542L0.28,22.542L3.72,27.458L33.72,6.458L30.28,1.542ZM0.28,27.458L30.28,48.458L33.72,43.542L3.72,22.542L0.28,27.458Z" fill="#000000" fill-opacity="0.2"/>
</svg>
